# xmcd
#
# Track frame offsets: 
#        150
#        13398
#        32566
#        48447
#        67569
#        83614
#        96478
#        111710
#        128045
#        143329
#        160522
#        172369
#        187184
#
# Disc length: 2790 seconds
#
# Revision: 0
# Processed by: cddbd v1.5.2PL0 Copyright (c) Steve Scherf et al.
# Submitted via: ExactAudioCopy v0.99pb5
#
DISCID=ae0ae40d
DTITLE=Deryl Dodd - Random As I Am
DYEAR=2011
DGENRE=Country
TTITLE0=Baby Where's My Bottle
TTITLE1=Loveletters
TTITLE2=FM 2213
TTITLE3=Anybody Out There
TTITLE4=Fallin'
TTITLE5=I'll Be Comin Home To You
TTITLE6=Love Around Here
TTITLE7=Losin' Ground
TTITLE8=Somethin' Ain't Always Better than Nothin'
TTITLE9=I Can Do This (Joy's song)
TTITLE10=Can't Say No To Larry Joe
TTITLE11=One Night Too Long
TTITLE12=Who Am I
EXTD=
EXTT0=
EXTT1=
EXTT2=
EXTT3=
EXTT4=
EXTT5=
EXTT6=
EXTT7=
EXTT8=
EXTT9=
EXTT10=
EXTT11=
EXTT12=
PLAYORDER=
